<?xml version="1.0" encoding="UTF-8"?>
<svg width="128pt" height="128pt" version="1.1" viewBox="0 0 128 128" xmlns="http://www.w3.org/2000/svg">
 <path d="m120.84 119.18c0 0.91406-0.74219 1.6562-1.6562 1.6562h-44.617c-0.91406 0-1.6562-0.74219-1.6602-1.6562v-44.617c0.003906-0.91797 0.74609-1.6562 1.6602-1.6602h44.617c0.91406 0 1.6562 0.74219 1.6562 1.6602zm-1.6562-50.062h-44.617c-3.0078 0.003906-5.4414 2.4375-5.4453 5.4453v44.617c0.003906 3.0078 2.4375 5.4453 5.4453 5.4492h44.617c3.0078-0.003906 5.4453-2.4414 5.4492-5.4492v-44.617c-0.003906-3.0078-2.4414-5.4453-5.4492-5.4453zm-110.37 55.512h44.617c3.0078-0.007812 5.4414-2.4414 5.4453-5.4492v-44.617c-0.003906-3.0078-2.4414-5.4414-5.4453-5.4453h-44.617c-3.0078 0-5.4453 2.4375-5.4492 5.4453v44.617c0.003906 3.0078 2.4414 5.4453 5.4492 5.4492zm110.37-121.26-44.617-0.003906c-3.0078 0.003906-5.4453 2.4414-5.4453 5.4492v44.617c0.003906 3.0078 2.4375 5.4414 5.4453 5.4453h44.617c3.0078-0.003906 5.4453-2.4375 5.4492-5.4453v-44.617c-0.003906-3.0078-2.4414-5.4453-5.4492-5.4492zm-112.02 5.4453c0-0.91406 0.74219-1.6562 1.6562-1.6602h44.617c0.91406 0.003906 1.6562 0.74609 1.6602 1.6602v44.617c-0.003906 0.91406-0.74609 1.6562-1.6602 1.6562h-44.617c-0.91406 0-1.6562-0.74219-1.6562-1.6562zm1.6562 50.062h44.617c3.0078-0.003906 5.4414-2.4375 5.4453-5.4453v-44.617c-0.003906-3.0078-2.4375-5.4453-5.4453-5.4492h-44.617c-3.0078 0.003906-5.4453 2.4414-5.4492 5.4492v44.617c0.003906 3.0078 2.4414 5.4414 5.4492 5.4453zm12.0508 20.613c-1.5625 1.5625-1.5625 4.0977 0 5.6602l12.73 12.727-12.73 12.727c-1.5625 1.5625-1.5625 4.0977 0 5.6602 1.5625 1.5586 4.0977 1.5586 5.6562 0l15.559-15.559c1.5625-1.5625 1.5625-4.0938 0-5.6562l-15.559-15.559c-1.5586-1.5586-4.0938-1.5586-5.6562 0zm60.949-35.613c0-2.2109 1.7891-4 4-4h24c2.2109 0 4 1.7891 4 4s-1.7891 4-4 4h-24c-2.2109 0-4-1.7891-4-4z" fill="#682079" fill-rule="evenodd"/>
</svg>
